<svg xmlns="http://www.w3.org/2000/svg" viewBox="0 0 1080 1080" role="img" aria-labelledby="title desc">
  <title id="title">ChefVirtuo Logo</title>
  <desc id="desc">ChefVirtuo chef hat and green VR goggles badge.</desc>
  <defs>
    <filter id="softShadow" x="-20%" y="-20%" width="140%" height="140%">
      <feDropShadow dx="0" dy="10" stdDeviation="10" flood-color="#000000" flood-opacity=".14"/>
    </filter>
    <path id="topArc" d="M205 430C248 205 832 205 875 430"/>
    <linearGradient id="goggle" x1="230" x2="850" y1="605" y2="820">
      <stop offset="0" stop-color="#7aefb2"/>
      <stop offset=".48" stop-color="#4fca88"/>
      <stop offset="1" stop-color="#2fad77"/>
    </linearGradient>
  </defs>

  <rect width="1080" height="1080" fill="#e9e6d3"/>

  <g filter="url(#softShadow)">
    <path d="M540 116c58 0 113 17 159 47 66-2 122 44 135 105 55 21 94 74 94 136 0 68-47 126-110 141-16 64-69 113-135 126-37 42-88 68-143 68s-106-26-143-68c-66-13-119-62-135-126-63-15-110-73-110-141 0-62 39-115 94-136 13-61 69-107 135-105 46-30 101-47 159-47z" fill="#fbfbee"/>

    <circle cx="540" cy="557" r="315" fill="#f7c84d"/>
    <circle cx="540" cy="557" r="329" fill="none" stroke="#aeb52b" stroke-width="13"/>
    <circle cx="540" cy="557" r="286" fill="none" stroke="#fffdf3" stroke-width="10"/>

    <g fill="#fffdf3">
      <path d="M178 550l22 47 47 22-47 22-22 47-22-47-47-22 47-22z"/>
      <path d="M902 550l22 47 47 22-47 22-22 47-22-47-47-22 47-22z"/>
      <path d="M540 820l18 38 38 18-38 18-18 38-18-38-38-18 38-18z"/>
      <path d="M345 465l15 31 31 15-31 15-15 31-15-31-31-15 31-15z"/>
      <path d="M735 465l15 31 31 15-31 15-15 31-15-31-31-15 31-15z"/>
    </g>

    <g stroke="#080808" stroke-linecap="round" stroke-linejoin="round">
      <path d="M356 504v-98c0-42 34-74 76-72 20-54 136-54 156 0 42-2 76 30 76 72v98z" fill="#fff" stroke-width="12"/>
      <path d="M385 409c42 46 94 68 155 68s113-22 155-68" fill="none" stroke-width="8"/>
      <path d="M407 493h266v89H407z" fill="#fff" stroke-width="12"/>
      <path d="M460 493v-44m160 44v-44" fill="none" stroke-width="8"/>
      <path d="M540 516l15 31 34 5-25 24 6 34-30-16-30 16 6-34-25-24 34-5z" fill="#080808" stroke-width="3"/>
    </g>

    <g stroke="#080808" stroke-linecap="round" stroke-linejoin="round">
      <path d="M282 591c17-65 70-102 143-102h230c73 0 126 37 143 102l20 89c20 87-40 162-128 162h-78c-36 0-46-65-72-65s-36 65-72 65h-78c-88 0-148-75-128-162z" fill="#080808" stroke-width="13"/>
      <path d="M316 613c14-47 51-72 109-72h230c58 0 95 25 109 72l16 68c14 59-25 109-85 109h-84c-31 0-41-58-71-58s-40 58-71 58h-84c-60 0-99-50-85-109z" fill="url(#goggle)" stroke="#fffdf3" stroke-width="18"/>
      <path d="M354 634c15-31 43-45 88-45h196c45 0 73 14 88 45" fill="none" stroke="#a7f7cf" stroke-width="13"/>
      <path d="M370 704c0 37 24 58 62 58h52m226-58c0 37-24 58-62 58h-52" fill="none" stroke="#080808" stroke-width="8"/>
      <circle cx="455" cy="694" r="33" fill="#080808" stroke="none"/>
      <circle cx="625" cy="694" r="33" fill="#080808" stroke="none"/>
      <path d="M250 625h45v111h-45c-18 0-33-15-33-33v-45c0-18 15-33 33-33zM830 625h-45v111h45c18 0 33-15 33-33v-45c0-18-15-33-33-33z" fill="#f8f8f8" stroke-width="11"/>
      <path d="M331 612c-14 58-15 116 1 172m416-172c14 58 15 116-1 172" fill="none" stroke-dasharray="18 18" stroke-width="6" opacity=".75"/>
    </g>

    <text font-family="Arial Black, Arial, sans-serif" font-size="108" font-weight="900" letter-spacing="12" fill="#050505">
      <textPath href="#topArc" startOffset="50%" text-anchor="middle">CHEFVIRTUO</textPath>
    </text>
  </g>
</svg>
